<?xml version="1.0" standalone="no"?>
<!DOCTYPE svg PUBLIC "-//W3C//DTD SVG 20010904//EN"
 "http://www.w3.org/TR/2001/REC-SVG-20010904/DTD/svg10.dtd">
<svg version="1.0" xmlns="http://www.w3.org/2000/svg"
 width="1550.000000pt" height="706.000000pt" viewBox="0 0 1550.000000 706.000000"
 preserveAspectRatio="xMidYMid meet">
<metadata>
Created by potrace 1.16, written by Peter Selinger 2001-2019
</metadata>
<g transform="translate(0.000000,706.000000) scale(0.100000,-0.100000)"
fill="rgba(0,0,0,.5)" stroke="none">
<path d="M7287 6024 c-1209 -358 -2200 -653 -2201 -655 -5 -5 30 -218 36 -225
5 -4 550 156 3608 1064 l735 219 65 -18 c100 -28 1687 -469 3049 -849 674
-187 1229 -339 1234 -337 13 4 96 201 88 208 -3 4 -996 282 -2206 619 -1210
336 -2202 615 -2205 619 -3 4 -994 -286 -2203 -645z"/>
<path d="M410 4710 l0 -140 3045 0 3045 0 0 140 0 140 -3045 0 -3045 0 0 -140z"/>
<path d="M5535 4305 c-93 -18 -208 -69 -283 -127 -106 -82 -198 -238 -243
-413 -21 -81 -24 -112 -23 -300 0 -194 2 -217 26 -306 85 -313 282 -499 576
-540 151 -22 360 3 500 58 l62 25 0 69 c0 38 -2 69 -5 69 -3 0 -25 -10 -47
-21 -118 -60 -268 -88 -375 -69 -92 16 -143 40 -203 96 -122 114 -180 314
-180 619 0 310 54 515 166 635 66 71 127 94 244 95 183 0 260 -62 260 -211 l0
-54 70 0 70 0 0 158 0 159 -39 12 c-175 52 -432 73 -576 46z"/>
<path d="M690 4225 l0 -55 35 0 c47 0 94 -25 105 -56 13 -34 13 -1264 0 -1298
-11 -30 -42 -48 -95 -55 l-40 -6 -3 -52 -3 -53 555 0 556 0 0 165 0 165 -65 0
-65 0 0 -47 c0 -72 -16 -118 -47 -134 -34 -18 -363 -19 -405 -2 -18 8 -30 24
-37 50 -7 25 -11 247 -11 636 0 661 -1 654 60 676 18 6 46 11 61 11 28 0 29 1
29 55 l0 55 -315 0 -315 0 0 -55z"/>
<path d="M2431 3968 c-140 -363 -427 -1091 -441 -1119 -24 -46 -74 -89 -106
-89 -22 0 -24 -3 -24 -55 l0 -55 160 0 160 0 0 55 c0 52 -1 55 -26 55 -14 0
-34 5 -46 11 -24 13 -22 23 29 156 l36 93 211 0 211 0 37 -93 c61 -154 61
-156 -17 -167 l-40 -5 -3 -52 -3 -53 284 0 c156 0 286 2 288 4 2 2 3 26 1 53
-3 45 -6 49 -41 64 -21 9 -51 33 -66 53 -16 21 -128 282 -257 599 -125 308
-228 562 -228 564 0 2 -25 3 -55 3 -48 0 -57 -3 -64 -22z m32 -631 c44 -105
80 -196 80 -202 2 -13 -302 -20 -314 -8 -9 9 138 403 150 403 3 0 41 -87 84
-193z"/>
<path d="M3518 3975 c-183 -46 -267 -145 -276 -321 -5 -112 11 -169 73 -253
56 -76 131 -132 295 -223 136 -75 220 -139 245 -189 22 -42 19 -117 -7 -169
-18 -35 -35 -51 -77 -72 -47 -24 -67 -28 -141 -28 -101 0 -176 19 -221 57 -36
31 -68 94 -69 136 0 28 -1 28 -52 25 l-53 -3 -3 -137 c-3 -158 -17 -139 128
-163 151 -25 331 -29 430 -11 260 47 413 233 370 449 -31 160 -129 261 -387
399 -207 110 -269 183 -242 283 6 21 18 49 26 61 44 68 221 92 318 44 57 -28
90 -72 100 -131 l7 -40 50 3 51 3 -2 120 c-1 66 -4 121 -5 123 -2 2 -46 12
-97 24 -124 27 -378 34 -461 13z"/>
<path d="M6779 3963 c-82 -217 -423 -1081 -438 -1111 -25 -49 -75 -92 -107
-92 -22 0 -24 -3 -24 -55 l0 -55 160 0 160 0 0 50 c0 32 -5 52 -12 54 -64 17
-73 23 -71 47 0 13 18 68 38 122 l38 97 211 0 211 0 37 -93 c61 -152 61 -156
-17 -167 l-40 -5 -3 -52 -3 -53 284 0 c156 0 286 2 288 4 2 2 3 26 1 53 -3 45
-6 49 -42 64 -21 10 -51 35 -67 57 -17 22 -123 270 -237 550 -113 281 -216
533 -228 561 l-21 51 -54 0 c-49 0 -54 -2 -64 -27z m37 -631 c45 -108 80 -200
77 -204 -6 -11 -311 -10 -317 1 -6 9 145 401 154 401 3 0 42 -89 86 -198z"/>
<path d="M12881 3968 c-5 -13 -100 -255 -210 -538 -111 -283 -211 -537 -223
-563 -26 -57 -79 -107 -113 -107 -24 0 -25 -3 -25 -55 l0 -55 160 0 160 0 0
50 c0 32 -5 52 -12 54 -67 18 -73 22 -71 51 1 15 18 70 38 122 l37 93 209 0
210 0 23 -52 c13 -29 34 -81 46 -116 27 -73 22 -83 -42 -91 l-43 -6 -3 -52 -3
-53 284 0 c156 0 286 2 288 4 2 2 2 27 1 55 -4 45 -6 50 -31 56 -34 7 -82 56
-109 110 -11 22 -118 282 -237 578 l-218 537 -54 0 c-46 0 -55 -3 -62 -22z
m37 -643 c44 -104 76 -193 72 -198 -3 -4 -76 -6 -161 -5 -149 3 -154 4 -152
24 4 37 146 385 154 377 4 -4 43 -93 87 -198z"/>
<path d="M13950 3970 c-188 -51 -269 -168 -258 -371 10 -181 114 -290 437
-460 78 -41 153 -107 176 -155 13 -27 16 -51 12 -91 -8 -73 -37 -116 -99 -147
-44 -22 -66 -26 -138 -26 -107 0 -180 21 -229 65 -36 33 -61 87 -61 134 0 19
-6 21 -55 21 l-55 0 0 -139 c0 -124 2 -140 18 -145 49 -15 221 -37 332 -42
229 -10 385 38 491 154 67 72 89 130 90 237 2 189 -92 304 -375 459 -217 119
-275 179 -261 269 17 103 86 150 219 150 135 1 200 -42 227 -147 l12 -47 50 3
50 3 -2 120 c-1 66 -3 120 -4 122 -2 1 -45 12 -97 24 -140 32 -377 37 -480 9z"/>
<path d="M7623 3945 c-2 -6 -2 -80 -1 -164 l3 -153 63 -2 62 -1 1 60 c1 33 4
71 8 85 13 46 40 51 301 48 l241 -3 -43 -60 c-23 -33 -188 -264 -365 -514
l-323 -454 0 -68 0 -69 555 0 555 0 0 165 0 165 -64 0 c-74 0 -76 -2 -76 -90
0 -42 -5 -64 -19 -81 l-19 -24 -288 -3 -287 -3 18 28 c10 15 173 245 361 510
189 266 347 491 351 500 5 10 6 45 3 78 l-5 60 -514 0 c-347 0 -515 -3 -518
-10z"/>
<path d="M10184 3951 c-2 -2 -4 -26 -4 -52 l0 -48 47 -7 c32 -5 56 -16 76 -35
l28 -28 -3 -485 c-3 -477 -3 -486 -24 -506 -12 -13 -41 -24 -70 -28 l-49 -7
-3 -53 -3 -52 519 0 c285 0 521 2 523 4 2 2 3 70 1 151 l-3 146 -57 -3 c-55
-3 -56 -4 -57 -33 -4 -105 -6 -125 -19 -138 -18 -18 -215 -29 -310 -17 -114
14 -110 5 -115 296 l-3 246 136 -4 c151 -3 151 -3 162 -70 7 -38 7 -38 55 -38
l49 0 0 158 c0 87 -2 161 -4 163 -3 2 -25 3 -50 1 -43 -4 -45 -5 -51 -43 -11
-61 -30 -69 -172 -69 l-123 0 0 225 0 225 158 0 c231 0 260 -13 269 -119 l6
-61 48 0 49 0 0 140 0 140 -501 2 c-275 2 -503 1 -505 -1z"/>
<path d="M8790 3901 l0 -48 40 -7 c21 -3 50 -11 63 -17 49 -22 50 -32 53 -389
2 -184 6 -364 9 -400 13 -170 100 -312 228 -374 147 -73 374 -73 515 -2 54 28
131 105 160 162 52 102 54 125 62 544 5 276 10 402 19 417 14 27 52 48 104 57
37 7 37 7 37 56 l0 50 -235 0 -235 0 0 -49 c0 -51 9 -61 51 -61 40 0 78 -29
89 -68 8 -26 10 -152 8 -412 -4 -315 -7 -385 -22 -435 -45 -158 -114 -225
-233 -225 -143 1 -199 72 -222 283 -13 114 -14 712 -2 777 11 54 37 77 96 86
l45 6 0 49 0 49 -315 0 -315 0 0 -49z"/>
<path d="M11330 3901 l0 -50 46 -7 c25 -3 58 -17 72 -29 l27 -23 3 -464 c4
-517 2 -531 -53 -554 -19 -8 -48 -14 -65 -14 -30 0 -30 0 -30 -55 l0 -55 460
0 460 0 0 165 0 165 -64 0 -64 0 -7 -79 c-10 -114 -12 -116 -137 -116 -119 0
-151 13 -162 66 -3 17 -6 234 -6 481 l0 450 28 27 c19 19 43 30 75 35 l47 7 0
50 0 49 -315 0 -315 0 0 -49z"/>
<path d="M380 2160 l0 -140 7310 0 7310 0 0 140 0 140 -7310 0 -7310 0 0 -140z"/>
<path d="M2863 1823 l-233 -3 0 -39 c0 -37 1 -39 45 -50 80 -20 76 9 73 -579
-3 -584 1 -549 -77 -559 -41 -6 -41 -6 -41 -49 l0 -44 245 0 245 0 0 45 c0 43
-1 45 -30 45 -17 0 -39 9 -50 20 -19 19 -20 33 -20 256 l0 235 41 -3 42 -3
131 -295 132 -295 152 -3 152 -3 0 40 c0 33 -6 43 -35 66 -50 38 -71 74 -181
320 -85 190 -96 219 -82 229 9 6 37 26 62 43 96 67 141 178 134 332 -7 152
-54 224 -180 273 -61 24 -143 27 -525 21z m287 -94 c106 -23 155 -102 154
-249 -1 -183 -72 -276 -220 -288 l-64 -5 0 277 0 276 40 0 c21 0 62 -5 90 -11z"/>
<path d="M4905 1576 c-108 -29 -164 -71 -201 -151 -34 -73 -34 -186 2 -260 36
-78 128 -158 270 -234 180 -98 220 -142 212 -233 -9 -92 -73 -140 -186 -141
-131 -2 -202 35 -230 118 -19 56 -18 55 -67 55 l-35 0 0 -109 c0 -126 -13
-113 130 -136 112 -18 267 -20 342 -4 128 27 240 111 271 204 9 27 17 74 17
106 0 147 -87 252 -306 370 -199 107 -244 168 -197 266 22 48 82 74 169 74 93
0 142 -28 169 -99 19 -50 22 -52 58 -52 l37 0 0 98 0 99 -77 18 c-102 23 -311
29 -378 11z"/>
<path d="M6836 1581 c-3 -4 -85 -210 -181 -457 -97 -247 -187 -466 -201 -487
-16 -24 -35 -40 -53 -43 -25 -5 -30 -11 -33 -46 -2 -21 -2 -41 1 -44 2 -2 62
-4 133 -4 l128 0 0 44 c0 43 -1 45 -32 48 -45 4 -47 35 -10 129 l30 74 171 3
172 2 19 -44 c35 -82 54 -145 47 -152 -4 -4 -24 -10 -44 -13 -36 -6 -38 -8
-41 -49 l-3 -42 235 0 236 0 0 43 c0 40 -2 44 -36 56 -24 9 -45 27 -62 55 -15
24 -108 244 -207 489 l-180 447 -42 0 c-23 0 -44 -4 -47 -9z m23 -533 c34 -80
61 -149 61 -152 0 -3 -59 -6 -131 -6 -121 0 -131 1 -125 18 47 130 122 308
127 299 4 -7 35 -78 68 -159z"/>
<path d="M10110 1587 c0 -6 -301 -776 -339 -869 -36 -85 -72 -128 -107 -128
-22 0 -24 -4 -24 -45 l0 -45 128 0 c71 0 131 2 133 4 3 3 3 23 1 45 -3 34 -8
41 -26 41 -11 0 -27 4 -35 9 -17 11 -6 56 34 148 l24 53 169 0 170 0 27 -67
c52 -129 51 -143 -12 -143 -32 0 -33 -1 -33 -45 l0 -45 228 0 c126 0 231 2
233 4 3 3 3 22 1 44 -3 31 -9 40 -31 49 -58 21 -68 43 -386 833 l-63 155 -46
3 c-25 2 -46 1 -46 -1z m24 -537 l65 -155 -64 -3 c-35 -2 -95 -2 -133 0 l-68
3 65 165 c35 91 66 160 68 155 2 -6 32 -80 67 -165z"/>
<path d="M3720 1516 l0 -43 42 -6 c80 -11 78 3 78 -439 l0 -389 -25 -24 c-16
-17 -35 -25 -60 -25 -35 0 -35 0 -35 -45 l0 -45 425 0 425 0 0 120 0 120 -49
0 -49 0 -4 -66 c-3 -42 -9 -69 -19 -75 -7 -5 -75 -9 -150 -9 -195 0 -183 -15
-187 239 l-3 201 99 0 c110 0 130 -8 140 -58 4 -18 10 -33 15 -32 4 0 21 0 37
0 l30 0 0 130 0 130 -40 0 c-35 0 -40 -3 -40 -23 0 -12 -7 -33 -16 -45 -14
-20 -23 -22 -120 -22 l-104 0 0 180 0 180 141 0 c181 0 199 -8 199 -91 l0 -47
41 -4 c22 -2 42 -2 45 1 2 2 4 55 4 118 l0 113 -410 0 -410 0 0 -44z"/>
<path d="M5502 1428 l3 -133 41 -3 42 -3 4 67 c5 86 16 94 120 94 l78 0 0
-424 c0 -474 5 -445 -75 -454 -43 -4 -45 -6 -45 -38 l0 -34 255 0 255 0 0 34
c0 32 -1 34 -46 39 -25 2 -51 10 -57 16 -9 9 -13 131 -15 437 l-3 426 90 -3
c49 -2 93 -8 98 -12 4 -5 10 -39 13 -75 l5 -67 43 -3 42 -3 0 135 0 136 -425
0 -426 0 3 -132z"/>
<path d="M7460 1515 c0 -42 2 -45 25 -45 38 0 82 -26 89 -52 3 -13 6 -142 6
-288 0 -146 4 -292 9 -325 35 -234 179 -345 430 -333 182 9 279 81 333 248 19
59 21 93 26 384 5 358 3 349 82 362 40 6 40 7 40 50 l0 44 -191 0 -190 0 3
-42 c3 -40 5 -41 50 -55 28 -8 52 -22 58 -34 8 -14 10 -124 8 -352 -4 -367 -9
-397 -71 -473 -55 -66 -147 -84 -222 -41 -32 18 -45 35 -65 82 -24 59 -25 63
-28 413 -4 399 -5 397 67 408 37 6 39 8 43 46 2 21 2 41 -1 44 -2 2 -116 4
-253 4 l-248 0 0 -45z"/>
<path d="M8582 1519 c3 -42 4 -44 44 -52 82 -16 79 0 79 -426 0 -207 -3 -388
-7 -402 -8 -27 -40 -45 -88 -51 -22 -3 -25 -9 -28 -46 l-3 -42 250 0 251 0 0
44 c0 43 0 43 -41 49 -23 3 -45 11 -50 18 -10 17 -21 198 -17 294 l3 80 41 3
41 3 118 -233 c65 -128 122 -239 128 -245 7 -10 53 -13 168 -13 l159 0 0 44
c0 39 -3 45 -29 55 -49 21 -85 70 -185 249 -53 95 -96 175 -96 177 0 2 21 14
47 27 111 54 171 154 160 269 -10 108 -65 171 -189 212 -58 19 -90 21 -411 25
l-348 4 3 -43z m598 -75 c50 -29 73 -66 78 -128 7 -81 -5 -122 -45 -167 -42
-46 -115 -72 -190 -67 l-48 3 -3 180 c-1 98 0 186 3 193 8 22 162 12 205 -14z"/>
<path d="M10730 1517 l0 -44 46 -6 c25 -2 51 -10 56 -15 21 -21 27 -111 27
-422 0 -314 -6 -401 -27 -422 -7 -7 -31 -14 -54 -17 -42 -6 -43 -7 -46 -49
l-3 -42 189 0 c104 0 191 2 193 4 3 3 3 23 1 45 -4 35 -7 41 -28 41 -43 0 -74
22 -85 59 -6 22 -9 128 -7 270 l3 233 260 -328 260 -329 67 -3 67 -3 3 465 c3
523 -1 497 82 513 40 8 41 10 44 51 l3 42 -196 0 -196 0 3 -42 c3 -37 6 -43
28 -46 55 -7 80 -23 90 -62 6 -23 9 -134 8 -271 l-3 -232 -260 324 -261 324
-132 3 -132 3 0 -44z"/>
<path d="M11829 1556 c-2 -2 -3 -63 -1 -135 l3 -131 38 0 38 0 6 67 c7 87 17
95 122 91 l80 -3 0 -417 c0 -471 4 -446 -79 -455 -45 -5 -46 -7 -46 -39 l0
-34 257 2 257 3 0 30 c0 26 -4 30 -29 33 -56 5 -82 22 -89 54 -3 17 -6 210 -6
430 l0 400 90 -4 c66 -2 93 -7 100 -18 5 -8 12 -43 16 -77 l6 -63 39 0 39 0 0
135 0 135 -418 0 c-230 0 -421 -2 -423 -4z"/>
</g>
</svg>
